<svg id="Capa_1" enable-background="new 0 0 512 512" height="512" viewBox="0 0 512 512" width="512" xmlns="http://www.w3.org/2000/svg"><g><g><path d="m512 10.302v491.396c0 5.687-4.615 10.302-10.302 10.302h-491.396c-5.687 0-10.302-4.615-10.302-10.302v-491.396c0-5.687 4.615-10.302 10.302-10.302h172.854l72.844 30.978 72.844-30.978h172.854c5.687 0 10.302 4.615 10.302 10.302z" fill="#b78b7a"/></g><g><path d="m368.39 368.39c-78.823 78.823-172.744 127.813-261.403 143.61h394.711c5.69 0 10.302-4.612 10.302-10.302v-394.71c-15.797 88.658-64.787 182.579-143.61 261.402z" fill="#aa7a63"/></g><g><path d="m312.195 468.397v-79.299c0-5.69 4.612-10.302 10.302-10.302h145.9c5.69 0 10.302 4.612 10.302 10.302v79.299c0 5.69-4.612 10.302-10.302 10.302h-145.9c-5.69 0-10.302-4.612-10.302-10.302z" fill="#ecf4ff"/></g><g><path d="m436.557 378.797c-8.999 26.85-26.762 55.375-52.037 80.65-7.004 7.004-14.258 13.428-21.656 19.252h105.533c5.69 0 10.302-4.612 10.302-10.302v-79.299c0-5.69-4.612-10.302-10.302-10.302h-31.84z" fill="#cbe2ff"/></g><g><path d="m189.821 125.884 5.357-4.209c1.494-1.174 3.598-1.174 5.092 0l9.477 7.447c1.494 1.174 3.598 1.174 5.092 0l9.477-7.447c1.494-1.174 3.598-1.174 5.092 0l9.477 7.447c1.494 1.174 3.598 1.174 5.092 0l9.477-7.447c1.494-1.174 3.598-1.174 5.092 0l9.477 7.447c1.494 1.174 3.598 1.174 5.092 0l9.477-7.447c1.494-1.174 3.598-1.174 5.092 0l9.477 7.447c1.494 1.174 3.598 1.174 5.092 0l9.477-7.447c1.494-1.174 3.598-1.174 5.092 0l5.357 4.209c2.704 2.124 6.667.198 6.667-3.24v-122.644h-145.692v122.644c0 3.438 3.963 5.364 6.667 3.24z" fill="#f1d0a5"/></g><g><path d="m68.683 478.699h-16.818c-2.207 0-3.998-1.788-4-3.996l-.044-39.735c-.001-1.137-.923-2.058-2.06-2.058h-4.53c-3.283 0-5.168-3.737-3.217-6.378l27.452-37.14c1.599-2.163 4.834-2.163 6.433 0l27.452 37.14c1.952 2.64.067 6.378-3.217 6.378h-4.53c-1.137 0-2.059.921-2.06 2.058l-.044 39.736c-.002 2.207-1.793 3.996-4 3.996h-16.817z" fill="#3342aa"/></g><g><path d="m172.748 478.699h-16.817c-2.207 0-3.998-1.788-4-3.996l-.044-39.735c-.001-1.137-.923-2.058-2.06-2.058h-4.53c-3.283 0-5.168-3.737-3.217-6.378l27.452-37.14c1.599-2.163 4.834-2.163 6.433 0l27.452 37.14c1.952 2.64.067 6.378-3.217 6.378h-4.53c-1.137 0-2.059.921-2.06 2.058l-.044 39.735c-.002 2.207-1.793 3.996-4 3.996z" fill="#3342aa"/></g><g><path d="m416.26 419.598h-41.626c-4.143 0-7.5-3.357-7.5-7.5s3.357-7.5 7.5-7.5h41.626c4.143 0 7.5 3.357 7.5 7.5s-3.358 7.5-7.5 7.5z" fill="#dd636e"/></g><g><path d="m437.073 452.898h-83.252c-4.143 0-7.5-3.357-7.5-7.5s3.357-7.5 7.5-7.5h83.252c4.143 0 7.5 3.357 7.5 7.5s-3.357 7.5-7.5 7.5z" fill="#dd636e"/></g></g></svg>